# xmcd CD database file
# Copyright (C) 1993-1996 Ti Kan
#
# Track frame offsets:
# 180
# 12843
# 31912
# 44322
# 56371
# 72287
# 86469
# 100018
# 112171
# 123253
# 137512
#
# Disc length: 2022 seconds
# Revision: 0
# Processed by: cddbd v1.4b41PL1 Copyright (c) Steve Scherf et al.
# Submitted via: CDSpectrumPro v3.2.327
#
DISCID=8607e40b
DTITLE=Gary Fjellgaard - Heroes And Other Hits
DYEAR=1900
DGENRE=
TTITLE0=Heroes
TTITLE1=Shaganippi Hick
TTITLE2=How Much Of Me
TTITLE3=All For You
TTITLE4=Ten Years Old And Barefoot
TTITLE5=Universal Girl
TTITLE6=Me and Martin
TTITLE7=Real Contender
TTITLE8=Piece Of Country Pie
TTITLE9=Ride Away To The Country
TTITLE10=Hold On To My Heart
EXTD=
EXTT0=
EXTT1=
EXTT2=
EXTT3=
EXTT4=
EXTT5=
EXTT6=
EXTT7=
EXTT8=
EXTT9=
EXTT10=
PLAYORDER=
